<svg width="52" height="52" fill="none" xmlns="http://www.w3.org/2000/svg"><path d="M52 26c0 14.36-11.64 26-26 26S0 40.36 0 26 11.64 0 26 0s26 11.64 26 26Z" fill="#D41443"/><path fill-rule="evenodd" clip-rule="evenodd" d="m17.786 50.775-.413-3.349c-3.579-.634-6.301-3.686-6.301-7.348v-5.935C9.284 33.527 8 31.866 8 29.918c0-1.875 1.19-3.485 2.874-4.153a14.89 14.89 0 0 1-.081-1.552C10.793 15.824 17.807 9 26.43 9c8.622 0 15.637 6.824 15.637 15.213 0 .518-.027 1.037-.081 1.552 1.684.668 2.873 2.278 2.873 4.153 0 1.948-1.284 3.609-3.071 4.225v5.935c0 3.662-2.723 6.714-6.302 7.348l-.369 2.992c-1.04.371-2.111.681-3.207.925l.468-3.794H20.482l.494 4.008a27.144 27.144 0 0 1-3.19-.782ZM35.86 16.143a12.69 12.69 0 0 0-9.43-4.155A12.69 12.69 0 0 0 17 16.143c5.447 4.406 13.412 4.406 18.86 0Zm-9.43 6.304c-4.112 0-8.012-1.348-11.171-3.827a11.885 11.885 0 0 0-1.332 6.816h25.006A11.884 11.884 0 0 0 37.6 18.62c-3.16 2.48-7.06 3.827-11.171 3.827Zm7.679 22.113c2.54 0 4.607-2.01 4.607-4.482V34.4h-3.072v2.69c0 2.471-2.066 4.482-4.607 4.482-2.54 0-4.607-2.01-4.607-4.482V34.4H14.143v5.678c0 2.472 2.067 4.482 4.608 4.482h15.358Zm-1.536-13.148h7.679c.847 0 1.536-.67 1.536-1.494 0-.823-.689-1.494-1.535-1.494H12.607c-.847 0-1.535.67-1.535 1.494s.689 1.494 1.535 1.494h16.894v5.678c0 .824.69 1.494 1.536 1.494.847 0 1.536-.67 1.536-1.494v-5.678Z" fill="#fff"/></svg>