<!-- Generated by IcoMoon.io -->
<svg version="1.1" xmlns="http://www.w3.org/2000/svg" width="32" height="32" viewBox="0 0 32 32">
<title>right-arrow</title>
<path fill="#041443" d="M32 15.738c0-0.89-0.34-1.726-0.97-2.355l-9.228-9.232c-0.695-0.696-1.823-0.696-2.517 0-0.696 0.696-0.695 1.828 0 2.524l7.527 7.524h-25.044c-0.984 0.001-1.768 0.807-1.768 1.792 0 0.002 0 0.018 0 0.020 0 0.984 0.784 1.796 1.768 1.796h25.045l-7.526 7.52c-0.696 0.696-0.696 1.825 0 2.521 0.695 0.697 1.823 0.696 2.519-0.001l9.224-9.233c0.63-0.628 0.97-1.466 0.97-2.356 0-0.088 0-0.434 0-0.521z"></path>
</svg>
